<svg viewBox="0 0 24 24" xmlns="http://www.w3.org/2000/svg" role="img">
  <path fill="currentColor" d="M12 .5a12 12 0 0 0-3.79 23.4c.6.11.82-.26.82-.58v-2.02
  c-3.34.73-4.04-1.61-4.04-1.61-.55-1.39-1.35-1.76-1.35-1.76-1.1-.75.08-.73.08-.73
  1.22.09 1.87 1.26 1.87 1.26 1.08 1.86 2.83 1.32 3.52 1.01.11-.8.42-1.32.76-1.63
  -2.66-.3-5.46-1.33-5.46-5.9 0-1.3.47-2.36 1.24-3.19-.12-.31-.54-1.57.12-3.27 0 0 
  1.01-.32 3.3 1.22a11.5 11.5 0 0 1 6 0c2.28-1.54 3.29-1.22 3.29-1.22.66 1.7.24 2.96.12
  3.27.77.83 1.24 1.9 1.24 3.19 0 4.59-2.8 5.6-5.48 5.9.43.37.81 1.1.81 2.23v3.31c0
  .32.21.69.82.58A12 12 0 0 0 12 .5Z"/>
</svg>