<svg viewBox="0 0 24 24" xmlns="http://www.w3.org/2000/svg">
  <!-- Simple Icons LinkedIn mark; single path, inherits currentColor -->
  <path fill="currentColor" d="M22.225 0H1.771C.792 0 0 .774 0 1.729v20.542C0 23.226.792 24 1.771 24h20.454C23.2 24 24 23.226 24 22.271V1.729C24 .774 23.2 0 22.225 0zM7.12 20.452H3.56V9h3.56v11.452zM5.34 7.433a2.062 2.062 0 1 1 0-4.124 2.062 2.062 0 0 1 0 4.124zM20.45 20.452h-3.55V14.89c0-1.327-.026-3.037-1.853-3.037-1.853 0-2.137 1.447-2.137 2.942v5.657H9.36V9h3.41v1.561h.05c.476-.9 1.636-1.852 3.368-1.852 3.606 0 4.262 2.372 4.262 5.455v6.288z"/>
</svg>