<svg viewBox="0 0 24 24" xmlns="http://www.w3.org/2000/svg">
  <path fill="currentColor" d="M12 1.5a10.5 10.5 0 1 0 0 21 10.5 10.5 0 0 0 0-21Zm4.68 15.02a.9.9 0 0 1-1.25.3c-3.41-2.08-7.71-1.27-9.86-.41a.9.9 0 1 1-.67-1.68c2.47-.99 7.35-1.9 11.2.43a.9.9 0 0 1 .3 1.36Zm1.17-2.87a1.1 1.1 0 0 1-1.52.37c-3.9-2.38-9.85-1.78-12.73-.6a1.1 1.1 0 1 1-.83-2.04c3.35-1.37 10.01-2.02 14.5.68.52.32.69 1 .38 1.59Zm.15-3.02c-4.41-2.62-11.13-2.3-14.93-.78a1.3 1.3 0 1 1-.96-2.41c4.34-1.73 11.83-2.13 16.89.87a1.3 1.3 0 0 1-1 2.32Z"/>
</svg>